<svg xmlns="http://www.w3.org/2000/svg" viewBox="0 0 126.55 118.88"><defs><style>.cls-1{fill:#ff8f66;}</style></defs><g id="Calque_2" data-name="Calque 2"><g id="Favicon"><g id="Groupe_87" data-name="Groupe 87"><path id="Tracé_43" data-name="Tracé 43" class="cls-1" d="M24.38,97.78A6.85,6.85,0,0,1,26,102.61v9H21.38v-8.46a3.15,3.15,0,0,0-.79-2.27,2.79,2.79,0,0,0-2.13-.82,2.88,2.88,0,0,0-2.22.86,3.45,3.45,0,0,0-.81,2.41v8.26H10.66v-8.44a3.18,3.18,0,0,0-.77-2.27,2.73,2.73,0,0,0-2.12-.82,3,3,0,0,0-2.23.85,3.39,3.39,0,0,0-.84,2.41v8.27H0V96.2H4.7v2.62a4.59,4.59,0,0,1,1.87-2A5.59,5.59,0,0,1,9.5,96a5.87,5.87,0,0,1,3.11.82,5,5,0,0,1,2,2.33,6,6,0,0,1,2.19-2.3,6.31,6.31,0,0,1,7.54.9Z"/><path id="Tracé_44" data-name="Tracé 44" class="cls-1" d="M38,96.8A4.8,4.8,0,0,1,39.88,99V96.2h4.69v15.41H39.88V108.8A4.8,4.8,0,0,1,38,111a5.54,5.54,0,0,1-3,.8,6.17,6.17,0,0,1-3.42-1,6.47,6.47,0,0,1-2.4-2.73,9.56,9.56,0,0,1-.87-4.21,9.4,9.4,0,0,1,.87-4.2A6.53,6.53,0,0,1,31.57,97,6.24,6.24,0,0,1,35,96a5.54,5.54,0,0,1,3,.8Zm-3.95,4.34a3.88,3.88,0,0,0-.92,2.75,3.92,3.92,0,0,0,.92,2.76,3.16,3.16,0,0,0,2.4,1,3.19,3.19,0,0,0,2.41-1,4.45,4.45,0,0,0,0-5.47,3.49,3.49,0,0,0-4.82,0Z"/><path id="Tracé_45" data-name="Tracé 45" class="cls-1" d="M57.13,111.61l-4.6-6.54v6.54H47.82V91.17h4.71v11.21l4.6-6.18h5.54l-6.2,7.69,6.34,7.72Z"/><path id="Tracé_46" data-name="Tracé 46" class="cls-1" d="M68.07,96.2l3.69,9.38,3.44-9.43h5.25l-9.64,22.73H65.62L69.24,111,62.81,96.2Z"/><path id="Tracé_47" data-name="Tracé 47" class="cls-1" d="M106.36,97.78a6.85,6.85,0,0,1,1.62,4.83v9h-4.62v-8.45a3,3,0,0,0-5.14-2.27,3.47,3.47,0,0,0-.82,2.41v8.3H92.69v-8.44a3.14,3.14,0,0,0-.78-2.27,2.72,2.72,0,0,0-2.12-.82,3,3,0,0,0-2.23.85,3.47,3.47,0,0,0-.82,2.41v8.27H82V96.2h4.71v2.62a4.67,4.67,0,0,1,1.86-2A5.59,5.59,0,0,1,91.53,96a5.94,5.94,0,0,1,3.13.82,5.06,5.06,0,0,1,2,2.33,6,6,0,0,1,2.19-2.3,6.3,6.3,0,0,1,7.54.9Z"/><path id="Tracé_48" data-name="Tracé 48" class="cls-1" d="M120,96.8A4.77,4.77,0,0,1,121.87,99V96.2h4.68v15.41h-4.68V108.8A4.72,4.72,0,0,1,120,111a5.54,5.54,0,0,1-3,.8,6.1,6.1,0,0,1-3.4-1,6.43,6.43,0,0,1-2.41-2.73,9.7,9.7,0,0,1-.87-4.21,9.54,9.54,0,0,1,.87-4.2A6.56,6.56,0,0,1,113.57,97,6.18,6.18,0,0,1,117,96,5.53,5.53,0,0,1,120,96.8Zm-3.93,4.34a4.55,4.55,0,0,0,0,5.51,3.16,3.16,0,0,0,2.4,1,3.19,3.19,0,0,0,2.41-1,4.41,4.41,0,0,0,0-5.47,3.17,3.17,0,0,0-2.41-1,3.11,3.11,0,0,0-2.4,1Z"/><path id="Tracé_49" data-name="Tracé 49" class="cls-1" d="M58.39,16.45V67.94a2,2,0,0,0,2,2H73a2,2,0,0,0,2-2h0V59.81a2.94,2.94,0,0,1,5.06-2L90.68,69a2.93,2.93,0,0,0,2.12.91h14a2,2,0,0,0,1.45-3.29L83.89,39.88a2.11,2.11,0,0,0-3-.13,1.8,1.8,0,0,0-.19.2l-.6.72A2.93,2.93,0,0,1,76,41a3,3,0,0,1-1-2.24V2a1.95,1.95,0,0,0-3-1.63A80.72,80.72,0,0,1,57,8.35a1.93,1.93,0,0,0-1.07,2.53,1.63,1.63,0,0,0,.3.51A8.07,8.07,0,0,1,58.39,16.45Z"/><path id="Tracé_50" data-name="Tracé 50" class="cls-1" d="M97.88,22.09s-7.46.86-11.3,10.39a1,1,0,0,0,.56,1.26.88.88,0,0,0,.53,0,8.14,8.14,0,0,1,2.15-.06,8.59,8.59,0,0,1,4.26,1.81l0,0,.07.05h0A7.72,7.72,0,1,0,97.88,22.1Z"/><path id="Tracé_51" data-name="Tracé 51" class="cls-1" d="M54.12,51.86A1.64,1.64,0,0,0,55.49,50a1.57,1.57,0,0,0-.41-.86h0l0,0-8.23-8.68a3,3,0,0,0-4.18-.11l-.15.15L18.16,67.19a1.65,1.65,0,0,0,.12,2.32,1.63,1.63,0,0,0,1.09.42H34.72a1.63,1.63,0,0,0,1.19-.51l8-8.45h0l7-7.39h0l.5-.53A5.55,5.55,0,0,1,54.12,51.86Z"/></g></g></g></svg>