<svg xmlns="http://www.w3.org/2000/svg" viewBox="0 0 612.03 469.31"><defs><style>.cls-1{fill:#ff966a;}</style></defs><g id="Calque_2" data-name="Calque 2"><g id="Barre"><path class="cls-1" d="M273.2,110.49V456a13.19,13.19,0,0,0,13.19,13.19h84.76A13.18,13.18,0,0,0,384.34,456V401.42c0-17.8,21.72-26.49,34-13.6l71.81,75.38a19.73,19.73,0,0,0,14.27,6.11h94.4a13.19,13.19,0,0,0,9.74-22.09l-164-179.5a14.19,14.19,0,0,0-21.33.44L419.15,273c-11.85,14.07-34.81,5.7-34.81-12.69v-247c0-10.56-11.85-16.93-20.54-10.94-39.34,27.08-78.27,44.78-100.37,53.74a13.08,13.08,0,0,0-5.18,20.43C274.07,95.67,273.2,110.49,273.2,110.49Z"/><path class="cls-1" d="M538.56,148.36s-50.11,5.77-75.91,69.68a6.56,6.56,0,0,0,7.32,8.82,54.67,54.67,0,0,1,14.42-.46c14.41,1.38,25.77,9.9,28.62,12.21l.27.22.46.39v0a51.85,51.85,0,1,0,24.81-90.84Z"/><path class="cls-1" d="M244.54,348.09c8.7-1.54,12.46-11.85,6.45-18.33h0l.23-.24L195.9,271.24a19.86,19.86,0,0,0-29.07.28L2.9,450.93A11,11,0,0,0,11,469.31H114.14a11,11,0,0,0,8-3.43l53.66-56.67h0l47-49.62h0l3.35-3.53C231.16,351.6,237.93,349.26,244.54,348.09Z"/></g></g></svg>