<svg xmlns="http://www.w3.org/2000/svg" viewBox="0 0 1114.15 274.78"><defs><style>.cls-1{fill:#f28d69;}</style></defs><g id="Calque_2" data-name="Calque 2"><g id="Calque_5" data-name="Calque 5"><g id="Groupe_87" data-name="Groupe 87"><path id="Tracé_43" data-name="Tracé 43" class="cls-1" d="M502.29,148.58A41.16,41.16,0,0,1,512,177.47v53.86H484.32V180.75a18.61,18.61,0,0,0-4.7-13.57,16.92,16.92,0,0,0-12.78-4.92,17.38,17.38,0,0,0-13.28,5.2,20.64,20.64,0,0,0-4.84,14.41v49.39H420.14V180.75a18.82,18.82,0,0,0-4.62-13.57,16.7,16.7,0,0,0-12.7-4.92,17.82,17.82,0,0,0-13.36,5.13,20.22,20.22,0,0,0-5,14.41v49.46H356.32V139.13h28.16v15.66a27.31,27.31,0,0,1,11.19-12.2,33.72,33.72,0,0,1,17.55-4.47A35.31,35.31,0,0,1,431.84,143,30.31,30.31,0,0,1,444,157a36.12,36.12,0,0,1,13.14-13.71,37.75,37.75,0,0,1,45.13,5.34Z"/><path id="Tracé_44" data-name="Tracé 44" class="cls-1" d="M583.94,142.75a28.81,28.81,0,0,1,11.2,13.1V139.13h28.08v92.18H595.14V214.5a28.84,28.84,0,0,1-11.2,13.09,33.38,33.38,0,0,1-18.12,4.77,37.23,37.23,0,0,1-20.43-5.7A38.55,38.55,0,0,1,531,210.28a57,57,0,0,1-5.2-25.12A56.52,56.52,0,0,1,531,160a38.84,38.84,0,0,1,14.41-16.32,37.23,37.23,0,0,1,20.43-5.7,33.38,33.38,0,0,1,18.12,4.77Zm-23.68,25.91a23.3,23.3,0,0,0-5.49,16.46,23.36,23.36,0,0,0,5.49,16.53,19,19,0,0,0,14.41,5.9,19.2,19.2,0,0,0,14.41-6.07,23.27,23.27,0,0,0,5.63-16.37,23.16,23.16,0,0,0-5.63-16.37,21,21,0,0,0-28.88,0Z"/><path id="Tracé_45" data-name="Tracé 45" class="cls-1" d="M698.45,231.31l-27.58-39.13v39.13H642.71V109.09h28.16v67l27.58-37h33.14l-37.11,46,38,46.2Z"/><path id="Tracé_46" data-name="Tracé 46" class="cls-1" d="M763.93,139.13,786,195.22l20.63-56.38h31.44L780.33,274.78h-31L771,227.42l-38.5-88.29Z"/><path id="Tracé_47" data-name="Tracé 47" class="cls-1" d="M993.22,148.58a41.17,41.17,0,0,1,9.74,28.88v53.85H975.24V180.75a18.9,18.9,0,0,0-4.7-13.57,19.33,19.33,0,0,0-26,0,20.64,20.64,0,0,0-4.92,14.41v49.67H911.35V180.75a18.91,18.91,0,0,0-4.62-13.57A16.63,16.63,0,0,0,894,162.26a17.89,17.89,0,0,0-13.35,5.13,20.47,20.47,0,0,0-4.91,14.41v49.46H847.53V139.13h28.23v15.66a27.12,27.12,0,0,1,11.13-12.2,33.63,33.63,0,0,1,17.55-4.48,35.59,35.59,0,0,1,18.7,4.91A30.63,30.63,0,0,1,935.34,157a36.16,36.16,0,0,1,13.1-13.71,37.78,37.78,0,0,1,45.13,5.34Z"/><path id="Tracé_48" data-name="Tracé 48" class="cls-1" d="M1074.88,142.75a28.83,28.83,0,0,1,11.26,13.1V139.13h28v92.18h-28V214.5a28.86,28.86,0,0,1-11.26,13.09,33.14,33.14,0,0,1-18.13,4.77,37,37,0,0,1-20.36-5.7A38.8,38.8,0,0,1,1022,210.28a57,57,0,0,1-5.2-25.12A56.66,56.66,0,0,1,1022,160a39,39,0,0,1,14.41-16.32,37,37,0,0,1,20.36-5.7A33.23,33.23,0,0,1,1074.88,142.75Zm-23.58,25.91a22.93,22.93,0,0,0-5.56,16.46,23,23,0,0,0,5.56,16.53,18.93,18.93,0,0,0,14.41,5.9,19.22,19.22,0,0,0,14.41-6.07,23,23,0,0,0,5.7-16.37,22.87,22.87,0,0,0-5.7-16.37,19.15,19.15,0,0,0-14.41-6,18.93,18.93,0,0,0-14.41,5.9Z"/><path id="Tracé_49" data-name="Tracé 49" class="cls-1" d="M133.69,54V223.13a6.46,6.46,0,0,0,6.46,6.46h41.48a6.46,6.46,0,0,0,6.46-6.45h0V196.41a9.65,9.65,0,0,1,16.64-6.65l35.15,36.89a9.64,9.64,0,0,0,7,3h46.2a6.46,6.46,0,0,0,4.77-10.81L217.56,131a6.94,6.94,0,0,0-9.81-.44,7.76,7.76,0,0,0-.63.65l-2,2.38a9.66,9.66,0,0,1-17-6.21V6.46a6.44,6.44,0,0,0-10-5.35A264.48,264.48,0,0,1,129,27.41a6.41,6.41,0,0,0-2.54,10A26.42,26.42,0,0,1,133.69,54Z"/><path id="Tracé_50" data-name="Tracé 50" class="cls-1" d="M263.56,72.56s-24.52,2.82-37.15,34.1a3.21,3.21,0,0,0,1.83,4.15A3.17,3.17,0,0,0,230,111a26.94,26.94,0,0,1,7.06-.23,28.1,28.1,0,0,1,14,6l.13.1.22.19h0a25.38,25.38,0,1,0,12.15-44.45Z"/><path id="Tracé_51" data-name="Tracé 51" class="cls-1" d="M119.66,170.31a5.39,5.39,0,0,0,3.16-9h0l.11-.12L95.86,132.7a9.73,9.73,0,0,0-13.74-.36c-.17.16-.33.33-.49.5L1.39,220.65a5.38,5.38,0,0,0,4,9H55.84A5.37,5.37,0,0,0,59.77,228L86,200.24h0L109,176h0l1.64-1.73A18.35,18.35,0,0,1,119.66,170.31Z"/></g></g></g></svg>