<svg id="logos" xmlns="http://www.w3.org/2000/svg" width="170.115" height="41.959" viewBox="0 0 170.115 41.959">
  <path id="Tracé_18" data-name="Tracé 18" d="M69.559,17.689A6.283,6.283,0,0,1,71.047,22.1v8.223H66.814V22.6a2.844,2.844,0,0,0-.717-2.072,2.579,2.579,0,0,0-1.951-.75,2.646,2.646,0,0,0-2.028.794,3.153,3.153,0,0,0-.739,2.2v7.54H57.015V22.6a2.877,2.877,0,0,0-.705-2.072,2.546,2.546,0,0,0-1.94-.75,2.712,2.712,0,0,0-2.039.783,3.087,3.087,0,0,0-.761,2.2v7.551h-4.3V16.245h4.3v2.392a4.167,4.167,0,0,1,1.709-1.863,5.148,5.148,0,0,1,2.679-.683,5.39,5.39,0,0,1,2.844.75,4.63,4.63,0,0,1,1.863,2.127,5.512,5.512,0,0,1,2.006-2.094,5.765,5.765,0,0,1,6.89.816Z" transform="translate(7.134 5.001)" fill="#F7F7F7"/>
  <path id="Tracé_19" data-name="Tracé 19" d="M79.625,16.8a4.409,4.409,0,0,1,1.709,2V16.247h4.288V30.323H81.334V27.755a4.409,4.409,0,0,1-1.709,2,5.1,5.1,0,0,1-2.767.728,5.688,5.688,0,0,1-3.12-.871,5.886,5.886,0,0,1-2.2-2.5,8.7,8.7,0,0,1-.794-3.836,8.631,8.631,0,0,1,.794-3.836,5.92,5.92,0,0,1,2.2-2.491,5.688,5.688,0,0,1,3.12-.871,5.1,5.1,0,0,1,2.767.728Zm-3.616,3.957a3.549,3.549,0,0,0-.838,2.513,3.56,3.56,0,0,0,.838,2.524,2.9,2.9,0,0,0,2.2.9,2.932,2.932,0,0,0,2.2-.926,3.561,3.561,0,0,0,.86-2.5,3.539,3.539,0,0,0-.86-2.5,3.2,3.2,0,0,0-4.409,0Z" transform="translate(9.535 4.999)" fill="#F7F7F7"/>
  <path id="Tracé_20" data-name="Tracé 20" d="M95.45,30.732l-4.211-5.975v5.975h-4.3V12.07h4.3V22.3l4.211-5.644h5.06l-5.666,7.022,5.8,7.055Z" transform="translate(11.193 4.59)" fill="#F7F7F7"/>
  <path id="Tracé_21" data-name="Tracé 21" d="M104.176,16.234l3.373,8.565L110.7,16.19h4.8l-8.819,20.757h-4.74l3.307-7.231L99.37,16.234Z" transform="translate(12.465 5.012)" fill="#F7F7F7"/>
  <path id="Tracé_22" data-name="Tracé 22" d="M137.555,17.689a6.283,6.283,0,0,1,1.488,4.409v8.223H134.81V22.6a2.888,2.888,0,0,0-.717-2.072,2.954,2.954,0,0,0-3.979,0,3.153,3.153,0,0,0-.75,2.2v7.584h-4.31V22.6a2.877,2.877,0,0,0-.705-2.072,2.535,2.535,0,0,0-1.94-.75,2.734,2.734,0,0,0-2.039.783,3.13,3.13,0,0,0-.75,2.2v7.551h-4.31V16.245h4.31v2.392a4.145,4.145,0,0,1,1.7-1.863A5.148,5.148,0,0,1,124,16.09a5.435,5.435,0,0,1,2.855.75,4.685,4.685,0,0,1,1.863,2.127,5.512,5.512,0,0,1,2-2.094,5.765,5.765,0,0,1,6.89.816Z" transform="translate(14.096 5.001)" fill="#F7F7F7"/>
  <path id="Tracé_23" data-name="Tracé 23" d="M147.624,16.8a4.41,4.41,0,0,1,1.72,2V16.247h4.277V30.323h-4.277V27.755a4.41,4.41,0,0,1-1.72,2,5.071,5.071,0,0,1-2.767.728,5.644,5.644,0,0,1-3.109-.871,5.908,5.908,0,0,1-2.2-2.5,8.7,8.7,0,0,1-.794-3.836,8.631,8.631,0,0,1,.794-3.836,5.941,5.941,0,0,1,2.2-2.491,5.644,5.644,0,0,1,3.109-.871A5.071,5.071,0,0,1,147.624,16.8Zm-3.6,3.957a3.505,3.505,0,0,0-.849,2.513,3.517,3.517,0,0,0,.849,2.524,2.888,2.888,0,0,0,2.2.9,2.932,2.932,0,0,0,2.2-.926,3.516,3.516,0,0,0,.871-2.5,3.494,3.494,0,0,0-.871-2.5,2.921,2.921,0,0,0-2.2-.915,2.888,2.888,0,0,0-2.2.9Z" transform="translate(16.495 4.999)" fill="#F7F7F7"/>
  <path id="Tracé_38" data-name="Tracé 38" d="M256.61,8.312v25.82a.986.986,0,0,0,.986.986h6.334a.985.985,0,0,0,.986-.986V30.053a1.474,1.474,0,0,1,2.541-1.016l5.366,5.633a1.475,1.475,0,0,0,1.066.457h7.055a.986.986,0,0,0,.728-1.651L269.416,20.062a1.06,1.06,0,0,0-1.594.033l-.3.362a1.474,1.474,0,0,1-2.6-.948V1.05a.984.984,0,0,0-1.535-.818,40.309,40.309,0,0,1-7.5,4.016.977.977,0,0,0-.387,1.527A4.034,4.034,0,0,1,256.61,8.312Z" transform="translate(-236.198 -0.06)" fill="#F7F7F7"/>
  <path id="Tracé_39" data-name="Tracé 39" d="M467.912,147.719s-3.745.431-5.673,5.207a.49.49,0,0,0,.547.659,4.086,4.086,0,0,1,1.078-.034,4.284,4.284,0,0,1,2.139.912l.02.016.034.029h0a3.875,3.875,0,1,0,1.854-6.788Z" transform="translate(-427.67 -136.637)" fill="#F7F7F7"/>
  <path id="Tracé_40" data-name="Tracé 40" d="M18.327,271.257a.824.824,0,0,0,.482-1.37h0l.017-.018-4.134-4.355a1.484,1.484,0,0,0-2.172.021L.269,278.943a.822.822,0,0,0,.605,1.374H8.582a.822.822,0,0,0,.6-.256l4.01-4.235h0l3.512-3.708h0l.25-.264A2.789,2.789,0,0,1,18.327,271.257Z" transform="translate(-0.057 -245.249)" fill="#F7F7F7"/>
</svg>